<svg xmlns="http://www.w3.org/2000/svg" xmlns:xlink="http://www.w3.org/1999/xlink" xmlns:lucid="lucid" width="1829.13" height="860"><g transform="translate(-20.866141732283495 -120)" lucid:page-tab-id="0_0"><g class="lucid-layer" lucid:layer-id="Mr-yfr9wxqml" display="block"><path d="M130 186c0-3.3 2.7-6 6-6h228c3.3 0 6 2.7 6 6v28c0 3.3-2.7 6-6 6H136c-3.3 0-6-2.7-6-6z" stroke="#4a5c5c" stroke-width="3" fill="#fae12c"/><use xlink:href="#a" transform="matrix(1,0,0,1,142,192) translate(10.53086419753086 17.77777777777778)"/><use xlink:href="#b" transform="matrix(1,0,0,1,142,192) translate(85.77777777777777 17.77777777777778)"/><use xlink:href="#c" transform="matrix(1,0,0,1,142,192) translate(116.64197530864197 17.77777777777778)"/><use xlink:href="#d" transform="matrix(1,0,0,1,142,192) translate(151.14814814814815 17.77777777777778)"/><path d="M110 286c0-3.3 2.7-6 6-6h268c3.3 0 6 2.7 6 6v28c0 3.3-2.7 6-6 6H116c-3.3 0-6-2.7-6-6z" stroke="#4a5c5c" stroke-width="3" fill="#fae12c"/><use xlink:href="#e" transform="matrix(1,0,0,1,122,292) translate(6.549382716049365 17.77777777777778)"/><use xlink:href="#f" transform="matrix(1,0,0,1,122,292) translate(133.46296296296296 17.77777777777778)"/><use xlink:href="#g" transform="matrix(1,0,0,1,122,292) translate(164.32716049382717 17.77777777777778)"/><use xlink:href="#h" transform="matrix(1,0,0,1,122,292) translate(187.72222222222223 17.77777777777778)"/><path d="M150 386c0-3.3 2.7-6 6-6h188c3.3 0 6 2.7 6 6v28c0 3.3-2.7 6-6 6H156c-3.3 0-6-2.7-6-6z" stroke="#4a5c5c" stroke-width="3" fill="#fae12c"/><use xlink:href="#i" transform="matrix(1,0,0,1,162,392) translate(26.981481481481474 17.77777777777778)"/><path d="M110 486c0-3.3 2.7-6 6-6h268c3.3 0 6 2.7 6 6v28c0 3.3-2.7 6-6 6H116c-3.3 0-6-2.7-6-6z" stroke="#4a5c5c" stroke-width="3" fill="#fae12c"/><use xlink:href="#e" transform="matrix(1,0,0,1,122,492) translate(22.59876543209876 17.77777777777778)"/><use xlink:href="#f" transform="matrix(1,0,0,1,122,492) translate(149.51234567901236 17.77777777777778)"/><use xlink:href="#j" transform="matrix(1,0,0,1,122,492) translate(180.37654320987656 17.77777777777778)"/><path d="M545.43 703.75c0-3.3 2.7-6 6-6h188c3.32 0 6 2.7 6 6v28c0 3.3-2.68 6-6 6h-188c-3.3 0-6-2.7-6-6z" stroke="#4a5c5c" stroke-width="3" fill="#7ab648"/><use xlink:href="#k" transform="matrix(1,0,0,1,557.4330708661416,709.75) translate(35.62345679012345 17.77777777777778)"/><path d="M805.43 703.75c0-3.3 2.7-6 6-6h212c3.32 0 6-2.7 6-6v-8c0-3.3 1.8-4 4.02-1.54l27.97 31.1c2.22 2.45 2.22 6.45 0 8.9l-27.97 31.1c-2.22 2.45-4.02 1.76-4.02-1.55v-8c0-3.3-2.68-6-6-6h-212c-3.3 0-6-2.7-6-6z" stroke="#4a5c5c" stroke-width="3" fill="#fff"/><use xlink:href="#l" transform="matrix(1,0,0,1,810.4330708661416,682.75) translate(15.629629629629633 39.65277777777778)"/><use xlink:href="#f" transform="matrix(1,0,0,1,810.4330708661416,682.75) translate(82.17283950617283 39.65277777777778)"/><use xlink:href="#m" transform="matrix(1,0,0,1,810.4330708661416,682.75) translate(113.03703703703702 39.65277777777778)"/><path d="M1125.43 703.75c0-3.3 2.7-6 6-6h188c3.32 0 6 2.7 6 6v28c0 3.3-2.68 6-6 6h-188c-3.3 0-6-2.7-6-6z" stroke="#4a5c5c" stroke-width="3" fill="#7ab648"/><use xlink:href="#n" transform="matrix(1,0,0,1,1137.4330708661416,709.75) translate(15.901234567901227 17.77777777777778)"/><path d="M1480 486c0-3.3 2.7-6 6-6h268c3.3 0 6 2.7 6 6v28c0 3.3-2.7 6-6 6h-268c-3.3 0-6-2.7-6-6z" stroke="#4a5c5c" stroke-width="3" fill="#fae12c"/><use xlink:href="#o" transform="matrix(1,0,0,1,1492,492) translate(5.314814814814824 17.77777777777778)"/><use xlink:href="#b" transform="matrix(1,0,0,1,1492,492) translate(166.7962962962963 17.77777777777778)"/><use xlink:href="#p" transform="matrix(1,0,0,1,1492,492) translate(197.6604938271605 17.77777777777778)"/><path d="M1520 386c0-3.3 2.7-6 6-6h188c3.3 0 6 2.7 6 6v28c0 3.3-2.7 6-6 6h-188c-3.3 0-6-2.7-6-6z" stroke="#4a5c5c" stroke-width="3" fill="#fae12c"/><use xlink:href="#q" transform="matrix(1,0,0,1,1532,392) translate(8.493827160493836 17.77777777777778)"/><path d="M1440 286c0-3.3 2.7-6 6-6h348c3.3 0 6 2.7 6 6v28c0 3.3-2.7 6-6 6h-348c-3.3 0-6-2.7-6-6z" stroke="#4a5c5c" stroke-width="3" fill="#fae12c"/><use xlink:href="#r" transform="matrix(1,0,0,1,1452,292) translate(29.265432098765444 17.77777777777778)"/><use xlink:href="#f" transform="matrix(1,0,0,1,1452,292) translate(190.7469135802469 17.77777777777778)"/><use xlink:href="#g" transform="matrix(1,0,0,1,1452,292) translate(221.61111111111111 17.77777777777778)"/><use xlink:href="#h" transform="matrix(1,0,0,1,1452,292) translate(245.00617283950618 17.77777777777778)"/><path d="M1500 186c0-3.3 2.7-6 6-6h228c3.3 0 6 2.7 6 6v28c0 3.3-2.7 6-6 6h-228c-3.3 0-6-2.7-6-6z" stroke="#4a5c5c" stroke-width="3" fill="#fae12c"/><use xlink:href="#s" transform="matrix(1,0,0,1,1512,192) translate(7.475308641975303 17.77777777777778)"/><use xlink:href="#b" transform="matrix(1,0,0,1,1512,192) translate(88.83333333333333 17.77777777777778)"/><use xlink:href="#c" transform="matrix(1,0,0,1,1512,192) translate(119.69753086419753 17.77777777777778)"/><use xlink:href="#d" transform="matrix(1,0,0,1,1512,192) translate(154.2037037037037 17.77777777777778)"/><path d="M250 223v34.88" stroke="#969a9d" stroke-width="3" fill="none"/><path d="M251.5 223.04h-3v-1.54h3" fill="#969a9d"/><path d="M250 273.65l-4.64-14.27h9.28z" stroke="#969a9d" stroke-width="3" fill="#969a9d"/><path d="M250 323v34.88" stroke="#969a9d" stroke-width="3" fill="none"/><path d="M251.5 323.04h-3v-1.54h3" fill="#969a9d"/><path d="M250 373.65l-4.64-14.27h9.28z" stroke="#969a9d" stroke-width="3" fill="#969a9d"/><path d="M250 423v34.88" stroke="#969a9d" stroke-width="3" fill="none"/><path d="M251.5 423.04h-3v-1.54h3" fill="#969a9d"/><path d="M250 473.65l-4.64-14.27h9.28z" stroke="#969a9d" stroke-width="3" fill="#969a9d"/><path d="M1620 477v-34.88" stroke="#969a9d" stroke-width="3" fill="none"/><path d="M1621.5 478.5h-3v-1.54h3" fill="#969a9d"/><path d="M1620 426.35l4.64 14.27h-9.28z" stroke="#969a9d" stroke-width="3" fill="#969a9d"/><path d="M1620 377v-34.88" stroke="#969a9d" stroke-width="3" fill="none"/><path d="M1621.5 378.5h-3v-1.54h3" fill="#969a9d"/><path d="M1620 326.35l4.64 14.27h-9.28z" stroke="#969a9d" stroke-width="3" fill="#969a9d"/><path d="M1620 277v-34.88" stroke="#969a9d" stroke-width="3" fill="none"/><path d="M1621.5 278.5h-3v-1.54h3" fill="#969a9d"/><path d="M1620 226.35l4.64 14.27h-9.28z" stroke="#969a9d" stroke-width="3" fill="#969a9d"/><path d="M485.43 717.75c0 22.1-17.9 40-40 40s-40-17.9-40-40 17.9-40 40-40 40 17.9 40 40zm-68.28-28.3l56.57 56.6m-56.57 0l56.57-56.6" stroke="#4a5c5c" stroke-width="3" fill="#7ab648"/><path d="M325.43 753.75c0-3.3 2.7-6 6-6h228c3.32 0 6 2.7 6 6v48c0 3.3-2.68 6-6 6h-228c-3.3 0-6-2.7-6-6z" stroke="#000" stroke-opacity="0" stroke-width="3" fill="#fff" fill-opacity="0"/><use xlink:href="#t" transform="matrix(1,0,0,1,330.43307086614163,752.75) translate(61.450617283950606 30.27777777777778)"/><path d="M488.43 717.75h34.88" stroke="#969a9d" stroke-width="3" fill="none"/><path d="M488.47 719.25h-1.63l.1-1.48-.06-1.52h1.6" fill="#969a9d"/><path d="M539.08 717.75l-14.27 4.64v-9.3z" stroke="#969a9d" stroke-width="3" fill="#969a9d"/><path d="M748.43 717.75h34.88" stroke="#969a9d" stroke-width="3" fill="none"/><path d="M748.47 719.25h-1.54v-3h1.54" fill="#969a9d"/><path d="M799.08 717.75l-14.27 4.64v-9.3z" stroke="#969a9d" stroke-width="3" fill="#969a9d"/><path d="M1465.43 717.75c0 22.1-17.9 40-40 40s-40-17.9-40-40 17.9-40 40-40 40 17.9 40 40zm-68.28-28.3l56.57 56.6m-56.57 0l56.57-56.6" stroke="#4a5c5c" stroke-width="3" fill="#7ab648"/><path d="M1305.43 753.75c0-3.3 2.7-6 6-6h228c3.32 0 6 2.7 6 6v48c0 3.3-2.68 6-6 6h-228c-3.3 0-6-2.7-6-6z" stroke="#000" stroke-opacity="0" stroke-width="3" fill="#fff" fill-opacity="0"/><use xlink:href="#u" transform="matrix(1,0,0,1,1310.4330708661416,752.75) translate(43.54938271604938 30.27777777777778)"/><path d="M1066.03 717.75h37.28" stroke="#969a9d" stroke-width="3" fill="none"/><path d="M1066.07 719.25h-1.67l.18-2.1-.2-.9h1.7" fill="#969a9d"/><path d="M1119.08 717.75l-14.27 4.64v-9.28z" stroke="#969a9d" stroke-width="3" fill="#969a9d"/><path d="M1328.43 717.75h34.88" stroke="#969a9d" stroke-width="3" fill="none"/><path d="M1328.47 719.25h-1.54v-3h1.54" fill="#969a9d"/><path d="M1379.08 717.75l-14.27 4.64v-9.3z" stroke="#969a9d" stroke-width="3" fill="#969a9d"/><path d="M815.43 774.5c0-3.3 2.7-6 6-6h228c3.32 0 6 2.7 6 6v48c0 3.3-2.68 6-6 6h-228c-3.3 0-6-2.7-6-6z" stroke="#000" stroke-opacity="0" stroke-width="3" fill="#fff" fill-opacity="0"/><g><use xlink:href="#v" transform="matrix(1,0,0,1,820.4330708661416,773.5) translate(31.204320987654356 33.094444444444434)"/><use xlink:href="#w" transform="matrix(1,0,0,1,820.4330708661416,773.5) translate(120.5925925925926 33.094444444444434)"/></g><path d="M684.43 326c0-3.3 2.7-6 6-6h490c3.32 0 6 2.7 6 6v118.8c0 3.3-2.68 6-6 6h-490c-3.3 0-6-2.7-6-6z" stroke="#000" stroke-opacity="0" stroke-width="3" fill="#fff" fill-opacity="0"/><g><use xlink:href="#v" transform="matrix(1,0,0,1,689.4330708661416,325) translate(60.17345679012351 68.43819444444443)"/><use xlink:href="#x" transform="matrix(1,0,0,1,689.4330708661416,325) translate(149.56172839506175 68.43819444444443)"/><use xlink:href="#y" transform="matrix(1,0,0,1,689.4330708661416,325) translate(196.16666666666669 68.43819444444443)"/><use xlink:href="#x" transform="matrix(1,0,0,1,689.4330708661416,325) translate(304.1969135802469 68.43819444444443)"/><use xlink:href="#z" transform="matrix(1,0,0,1,689.4330708661416,325) translate(350.80185185185184 68.43819444444443)"/></g><path d="M485.43 865.25c0-3.3 2.7-6 6-6h248c3.32 0 6 2.7 6 6v28c0 3.3-2.68 6-6 6h-248c-3.3 0-6-2.7-6-6z" stroke="#4a5c5c" stroke-width="3" fill="#c1e4f7"/><g><use xlink:href="#A" transform="matrix(1,0,0,1,497.43307086614163,871.25) translate(19.388888888888886 17.77777777777778)"/><use xlink:href="#f" transform="matrix(1,0,0,1,497.43307086614163,871.25) translate(137.6604938271605 17.77777777777778)"/><use xlink:href="#B" transform="matrix(1,0,0,1,497.43307086614163,871.25) translate(168.5246913580247 17.77777777777778)"/></g><path d="M805.43 865.25c0-3.3 2.7-6 6-6h212c3.32 0 6-2.7 6-6v-8c0-3.3 1.8-4 4.02-1.54l27.97 31.1c2.22 2.45 2.22 6.45 0 8.9l-27.97 31.1c-2.22 2.45-4.02 1.76-4.02-1.55v-8c0-3.3-2.68-6-6-6h-212c-3.3 0-6-2.7-6-6z" stroke="#4a5c5c" stroke-width="3" fill="#fff"/><g><use xlink:href="#l" transform="matrix(1,0,0,1,810.4330708661416,844.25) translate(15.629629629629633 39.65277777777778)"/><use xlink:href="#f" transform="matrix(1,0,0,1,810.4330708661416,844.25) translate(82.17283950617283 39.65277777777778)"/><use xlink:href="#m" transform="matrix(1,0,0,1,810.4330708661416,844.25) translate(113.03703703703702 39.65277777777778)"/></g><path d="M748.43 879.25h34.88" stroke="#969a9d" stroke-width="3" fill="none"/><path d="M748.47 880.75h-1.54v-3h1.54" fill="#969a9d"/><path d="M799.08 879.25l-14.27 4.64v-9.3z" stroke="#969a9d" stroke-width="3" fill="#969a9d"/><path d="M1066.03 879.25h37.28" stroke="#969a9d" stroke-width="3" fill="none"/><path d="M1066.07 880.75h-1.67l.18-2.1-.2-.9h1.7" fill="#969a9d"/><path d="M1119.08 879.25l-14.27 4.64v-9.28z" stroke="#969a9d" stroke-width="3" fill="#969a9d"/><path d="M1125.43 865.25c0-3.3 2.7-6 6-6h248c3.32 0 6 2.7 6 6v28c0 3.3-2.68 6-6 6h-248c-3.3 0-6-2.7-6-6z" stroke="#4a5c5c" stroke-width="3" fill="#c1e4f7"/><g><use xlink:href="#C" transform="matrix(1,0,0,1,1137.4330708661416,871.25) translate(2.1049382716049365 17.77777777777778)"/><use xlink:href="#f" transform="matrix(1,0,0,1,1137.4330708661416,871.25) translate(154.94444444444443 17.77777777777778)"/><use xlink:href="#B" transform="matrix(1,0,0,1,1137.4330708661416,871.25) translate(185.80864197530863 17.77777777777778)"/></g><path d="M250 523v36.38" stroke="#969a9d" stroke-width="3" fill="none"/><path d="M251.5 523.04h-3v-1.54h3" fill="#969a9d"/><path d="M250 575.15l-4.64-14.27h9.28z" stroke="#969a9d" stroke-width="3" fill="#969a9d"/></g><g class="lucid-layer" lucid:layer-id=".p-ykoxjwCIG" display="block"><path d="M1410 146c0-3.3 2.7-6 6-6h408c3.3 0 6 2.7 6 6v428c0 3.3-2.7 6-6 6h-408c-3.3 0-6-2.7-6-6zM40.87 146c0-3.3 2.68-6 6-6h408c3.3 0 6 2.7 6 6v428c0 3.3-2.7 6-6 6h-408c-3.32 0-6-2.7-6-6zM350 666c0-3.3 2.7-6 6-6h1148c3.3 0 6 2.7 6 6v288c0 3.3-2.7 6-6 6H356c-3.3 0-6-2.7-6-6z" stroke="#4a5c5c" stroke-width="3" fill-opacity="0"/><path d="M250.9 583l.86 68.08 1.6 25.78 1.9 18.38 2.1 14.3 2.2 11.6 2.27 9.67 2.3 8.25 2.3 7.1 2.3 6.22 2.3 5.48 2.3 4.87 2.3 4.37 2.26 3.94 2.27 3.58 2.26 3.27 2.28 2.98 2.28 2.76 2.3 2.54 2.3 2.36 2.33 2.18 2.36 2.04 2.4 1.9 2.43 1.76 2.47 1.65 2.54 1.54 2.63 1.45 2.7 1.33 2.77 1.24 2.88 1.14 3 1.05 3.14.95 3.3.85 1.5.32" stroke="#969a9d" stroke-width="3" fill="none"/><path d="M252.4 583.02l-3 .04-.03-1.56h3" fill="#969a9d"/><path d="M343.67 809.5L329 812.7l.95-9.23z" stroke="#969a9d" stroke-width="3" fill="#969a9d"/><path d="M1513 809.97l3.38-.07 4.56-.3 4.28-.44 4.04-.6 3.83-.72 3.64-.86 3.5-.97 3.33-1.08 3.22-1.2 3.1-1.3 3-1.42 2.94-1.53 2.86-1.65 2.8-1.78 2.74-1.9 2.7-2.06 2.67-2.2 2.65-2.38 2.62-2.57 2.6-2.77 2.6-3 2.6-3.28 2.6-3.58 2.6-3.92 2.6-4.3 2.63-4.8 2.64-5.3 2.65-5.98 2.66-6.74 2.67-7.68 2.66-8.83 2.63-10.3 2.58-12.17 2.48-14.68 2.3-18.23 1.95-23.7 1.4-34.55.08-9" stroke="#969a9d" stroke-width="3" fill="none"/><path d="M1513.07 811.47l-1.57.03v-3l1.5-.03" fill="#969a9d"/><path d="M1619.95 586.35l4.5 14.3-9.26-.07z" stroke="#969a9d" stroke-width="3" fill="#969a9d"/><path d="M1620 583l.04 3.97v.06-.03l.04-.57.55-43.82" stroke="#969a9d" stroke-width="3" fill="none"/><path d="M1621.5 583.03l-3 .02v-1.55h3" fill="#969a9d"/><path d="M1620.83 526.84l4.45 14.33-9.27-.12z" stroke="#969a9d" stroke-width="3" fill="#969a9d"/></g><defs><path fill="#29384d" d="M63-220v92h138v28H63V0H30v-248h175v28H63" id="D"/><path fill="#29384d" d="M84 4C-5 8 30-112 23-190h32v120c0 31 7 50 39 49 72-2 45-101 50-169h31l1 190h-30c-1-10 1-25-2-33-11 22-28 36-60 37" id="E"/><path fill="#29384d" d="M100-194c63 0 86 42 84 106H49c0 40 14 67 53 68 26 1 43-12 49-29l28 8c-11 28-37 45-77 45C44 4 14-33 15-96c1-61 26-98 85-98zm52 81c6-60-76-77-97-28-3 7-6 17-6 28h103" id="F"/><path fill="#29384d" d="M117-194c89-4 53 116 60 194h-32v-121c0-31-8-49-39-48C34-167 62-67 57 0H25l-1-190h30c1 10-1 24 2 32 11-22 29-35 61-36" id="G"/><path fill="#29384d" d="M59-47c-2 24 18 29 38 22v24C64 9 27 4 27-40v-127H5v-23h24l9-43h21v43h35v23H59v120" id="H"/><g id="a"><use transform="matrix(0.06172839506172839,0,0,0.06172839506172839,0,0)" xlink:href="#D"/><use transform="matrix(0.06172839506172839,0,0,0.06172839506172839,13.518518518518517,0)" xlink:href="#E"/><use transform="matrix(0.06172839506172839,0,0,0.06172839506172839,25.864197530864196,0)" xlink:href="#F"/><use transform="matrix(0.06172839506172839,0,0,0.06172839506172839,38.20987654320987,0)" xlink:href="#G"/><use transform="matrix(0.06172839506172839,0,0,0.06172839506172839,50.55555555555555,0)" xlink:href="#H"/><use transform="matrix(0.06172839506172839,0,0,0.06172839506172839,56.72839506172839,0)" xlink:href="#F"/></g><path fill="#29384d" d="M85-194c31 0 48 13 60 33l-1-100h32l1 261h-30c-2-10 0-23-3-31C134-8 116 4 85 4 32 4 16-35 15-94c0-66 23-100 70-100zm9 24c-40 0-46 34-46 75 0 40 6 74 45 74 42 0 51-32 51-76 0-42-9-74-50-73" id="I"/><g id="b"><use transform="matrix(0.06172839506172839,0,0,0.06172839506172839,0,0)" xlink:href="#I"/><use transform="matrix(0.06172839506172839,0,0,0.06172839506172839,12.345679012345679,0)" xlink:href="#F"/></g><path fill="#29384d" d="M24 0v-261h32V0H24" id="J"/><path fill="#29384d" d="M100-194c62-1 85 37 85 99 1 63-27 99-86 99S16-35 15-95c0-66 28-99 85-99zM99-20c44 1 53-31 53-75 0-43-8-75-51-75s-53 32-53 75 10 74 51 75" id="K"/><path fill="#29384d" d="M135-143c-3-34-86-38-87 0 15 53 115 12 119 90S17 21 10-45l28-5c4 36 97 45 98 0-10-56-113-15-118-90-4-57 82-63 122-42 12 7 21 19 24 35" id="L"/><g id="c"><use transform="matrix(0.06172839506172839,0,0,0.06172839506172839,0,0)" xlink:href="#J"/><use transform="matrix(0.06172839506172839,0,0,0.06172839506172839,4.876543209876543,0)" xlink:href="#K"/><use transform="matrix(0.06172839506172839,0,0,0.06172839506172839,17.22222222222222,0)" xlink:href="#L"/></g><path fill="#29384d" d="M141-36C126-15 110 5 73 4 37 3 15-17 15-53c-1-64 63-63 125-63 3-35-9-54-41-54-24 1-41 7-42 31l-33-3c5-37 33-52 76-52 45 0 72 20 72 64v82c-1 20 7 32 28 27v20c-31 9-61-2-59-35zM48-53c0 20 12 33 32 33 41-3 63-29 60-74-43 2-92-5-92 41" id="M"/><g id="d"><use transform="matrix(0.06172839506172839,0,0,0.06172839506172839,0,0)" xlink:href="#I"/><use transform="matrix(0.06172839506172839,0,0,0.06172839506172839,12.345679012345679,0)" xlink:href="#M"/><use transform="matrix(0.06172839506172839,0,0,0.06172839506172839,24.691358024691358,0)" xlink:href="#H"/><use transform="matrix(0.06172839506172839,0,0,0.06172839506172839,30.864197530864196,0)" xlink:href="#K"/><use transform="matrix(0.06172839506172839,0,0,0.06172839506172839,43.20987654320987,0)" xlink:href="#L"/></g><path fill="#29384d" d="M212-179c-10-28-35-45-73-45-59 0-87 40-87 99 0 60 29 101 89 101 43 0 62-24 78-52l27 14C228-24 195 4 139 4 59 4 22-46 18-125c-6-104 99-153 187-111 19 9 31 26 39 46" id="N"/><path fill="#29384d" d="M24-231v-30h32v30H24zM24 0v-190h32V0H24" id="O"/><path fill="#29384d" d="M101-234c-31-9-42 10-38 44h38v23H63V0H32v-167H5v-23h27c-7-52 17-82 69-68v24" id="P"/><path fill="#29384d" d="M96-169c-40 0-48 33-48 73s9 75 48 75c24 0 41-14 43-38l32 2c-6 37-31 61-74 61-59 0-76-41-82-99-10-93 101-131 147-64 4 7 5 14 7 22l-32 3c-4-21-16-35-41-35" id="Q"/><path fill="#29384d" d="M100-194c62-1 85 37 85 99 1 63-27 99-86 99S16-35 15-95c0-66 28-99 85-99zM99-20c44 1 53-31 53-75 0-43-8-75-51-75s-53 32-53 75 10 74 51 75zM76-211c8-23 27-35 38-54h36v5l-58 49H76" id="R"/><g id="e"><use transform="matrix(0.06172839506172839,0,0,0.06172839506172839,0,0)" xlink:href="#N"/><use transform="matrix(0.06172839506172839,0,0,0.06172839506172839,15.987654320987653,0)" xlink:href="#K"/><use transform="matrix(0.06172839506172839,0,0,0.06172839506172839,28.333333333333332,0)" xlink:href="#I"/><use transform="matrix(0.06172839506172839,0,0,0.06172839506172839,40.67901234567901,0)" xlink:href="#O"/><use transform="matrix(0.06172839506172839,0,0,0.06172839506172839,45.55555555555556,0)" xlink:href="#P"/><use transform="matrix(0.06172839506172839,0,0,0.06172839506172839,51.7283950617284,0)" xlink:href="#O"/><use transform="matrix(0.06172839506172839,0,0,0.06172839506172839,56.604938271604944,0)" xlink:href="#Q"/><use transform="matrix(0.06172839506172839,0,0,0.06172839506172839,67.71604938271605,0)" xlink:href="#M"/><use transform="matrix(0.06172839506172839,0,0,0.06172839506172839,80.06172839506173,0)" xlink:href="#Q"/><use transform="matrix(0.06172839506172839,0,0,0.06172839506172839,91.17283950617285,0)" xlink:href="#O"/><use transform="matrix(0.06172839506172839,0,0,0.06172839506172839,96.0493827160494,0)" xlink:href="#R"/><use transform="matrix(0.06172839506172839,0,0,0.06172839506172839,108.39506172839508,0)" xlink:href="#G"/></g><g id="f"><use transform="matrix(0.06172839506172839,0,0,0.06172839506172839,0,0)" xlink:href="#I"/><use transform="matrix(0.06172839506172839,0,0,0.06172839506172839,12.345679012345679,0)" xlink:href="#F"/></g><g id="g"><use transform="matrix(0.06172839506172839,0,0,0.06172839506172839,0,0)" xlink:href="#J"/><use transform="matrix(0.06172839506172839,0,0,0.06172839506172839,4.876543209876543,0)" xlink:href="#M"/></g><g id="h"><use transform="matrix(0.06172839506172839,0,0,0.06172839506172839,0,0)" xlink:href="#P"/><use transform="matrix(0.06172839506172839,0,0,0.06172839506172839,6.172839506172839,0)" xlink:href="#E"/><use transform="matrix(0.06172839506172839,0,0,0.06172839506172839,18.51851851851852,0)" xlink:href="#F"/><use transform="matrix(0.06172839506172839,0,0,0.06172839506172839,30.864197530864196,0)" xlink:href="#G"/><use transform="matrix(0.06172839506172839,0,0,0.06172839506172839,43.20987654320987,0)" xlink:href="#H"/><use transform="matrix(0.06172839506172839,0,0,0.06172839506172839,49.382716049382715,0)" xlink:href="#F"/></g><path fill="#29384d" d="M30 0v-248h187v28H63v79h144v27H63v87h162V0H30" id="S"/><path fill="#29384d" d="M114-163C36-179 61-72 57 0H25l-1-190h30c1 12-1 29 2 39 6-27 23-49 58-41v29" id="T"/><path fill="#29384d" d="M115-194c55 1 70 41 70 98S169 2 115 4C84 4 66-9 55-30l1 105H24l-1-265h31l2 30c10-21 28-34 59-34zm-8 174c40 0 45-34 45-75s-6-73-45-74c-42 0-51 32-51 76 0 43 10 73 51 73" id="U"/><g id="i"><use transform="matrix(0.06172839506172839,0,0,0.06172839506172839,0,0)" xlink:href="#S"/><use transform="matrix(0.06172839506172839,0,0,0.06172839506172839,14.814814814814813,0)" xlink:href="#G"/><use transform="matrix(0.06172839506172839,0,0,0.06172839506172839,27.160493827160494,0)" xlink:href="#Q"/><use transform="matrix(0.06172839506172839,0,0,0.06172839506172839,38.27160493827161,0)" xlink:href="#T"/><use transform="matrix(0.06172839506172839,0,0,0.06172839506172839,45.617283950617285,0)" xlink:href="#O"/><use transform="matrix(0.06172839506172839,0,0,0.06172839506172839,50.49382716049383,0)" xlink:href="#U"/><use transform="matrix(0.06172839506172839,0,0,0.06172839506172839,62.839506172839506,0)" xlink:href="#H"/><use transform="matrix(0.06172839506172839,0,0,0.06172839506172839,69.01234567901234,0)" xlink:href="#M"/><use transform="matrix(0.06172839506172839,0,0,0.06172839506172839,81.35802469135803,0)" xlink:href="#Q"/><use transform="matrix(0.06172839506172839,0,0,0.06172839506172839,92.46913580246914,0)" xlink:href="#O"/><use transform="matrix(0.06172839506172839,0,0,0.06172839506172839,97.34567901234568,0)" xlink:href="#R"/><use transform="matrix(0.06172839506172839,0,0,0.06172839506172839,109.69135802469137,0)" xlink:href="#G"/></g><g id="j"><use transform="matrix(0.06172839506172839,0,0,0.06172839506172839,0,0)" xlink:href="#Q"/><use transform="matrix(0.06172839506172839,0,0,0.06172839506172839,11.11111111111111,0)" xlink:href="#M"/><use transform="matrix(0.06172839506172839,0,0,0.06172839506172839,23.45679012345679,0)" xlink:href="#G"/><use transform="matrix(0.06172839506172839,0,0,0.06172839506172839,35.80246913580247,0)" xlink:href="#M"/><use transform="matrix(0.06172839506172839,0,0,0.06172839506172839,48.148148148148145,0)" xlink:href="#J"/></g><path fill="#29384d" d="M240 0l2-218c-23 76-54 145-80 218h-23L58-218 59 0H30v-248h44l77 211c21-75 51-140 76-211h43V0h-30" id="V"/><g id="k"><use transform="matrix(0.06172839506172839,0,0,0.06172839506172839,0,0)" xlink:href="#V"/><use transform="matrix(0.06172839506172839,0,0,0.06172839506172839,18.456790123456788,0)" xlink:href="#K"/><use transform="matrix(0.06172839506172839,0,0,0.06172839506172839,30.80246913580247,0)" xlink:href="#I"/><use transform="matrix(0.06172839506172839,0,0,0.06172839506172839,43.148148148148145,0)" xlink:href="#E"/><use transform="matrix(0.06172839506172839,0,0,0.06172839506172839,55.49382716049382,0)" xlink:href="#J"/><use transform="matrix(0.06172839506172839,0,0,0.06172839506172839,60.37037037037037,0)" xlink:href="#M"/><use transform="matrix(0.06172839506172839,0,0,0.06172839506172839,72.71604938271605,0)" xlink:href="#I"/><use transform="matrix(0.06172839506172839,0,0,0.06172839506172839,85.06172839506173,0)" xlink:href="#K"/><use transform="matrix(0.06172839506172839,0,0,0.06172839506172839,97.40740740740742,0)" xlink:href="#T"/></g><path fill="#29384d" d="M210-169c-67 3-38 105-44 169h-31v-121c0-29-5-50-35-48C34-165 62-65 56 0H25l-1-190h30c1 10-1 24 2 32 10-44 99-50 107 0 11-21 27-35 58-36 85-2 47 119 55 194h-31v-121c0-29-5-49-35-48" id="W"/><g id="l"><use transform="matrix(0.06172839506172839,0,0,0.06172839506172839,0,0)" xlink:href="#W"/><use transform="matrix(0.06172839506172839,0,0,0.06172839506172839,18.456790123456788,0)" xlink:href="#F"/><use transform="matrix(0.06172839506172839,0,0,0.06172839506172839,30.80246913580247,0)" xlink:href="#I"/><use transform="matrix(0.06172839506172839,0,0,0.06172839506172839,43.148148148148145,0)" xlink:href="#O"/><use transform="matrix(0.06172839506172839,0,0,0.06172839506172839,48.02469135802469,0)" xlink:href="#K"/></g><g id="m"><use transform="matrix(0.06172839506172839,0,0,0.06172839506172839,0,0)" xlink:href="#H"/><use transform="matrix(0.06172839506172839,0,0,0.06172839506172839,6.172839506172839,0)" xlink:href="#T"/><use transform="matrix(0.06172839506172839,0,0,0.06172839506172839,13.518518518518519,0)" xlink:href="#M"/><use transform="matrix(0.06172839506172839,0,0,0.06172839506172839,25.864197530864196,0)" xlink:href="#G"/><use transform="matrix(0.06172839506172839,0,0,0.06172839506172839,38.20987654320987,0)" xlink:href="#L"/><use transform="matrix(0.06172839506172839,0,0,0.06172839506172839,49.32098765432099,0)" xlink:href="#W"/><use transform="matrix(0.06172839506172839,0,0,0.06172839506172839,67.77777777777777,0)" xlink:href="#O"/><use transform="matrix(0.06172839506172839,0,0,0.06172839506172839,72.65432098765432,0)" xlink:href="#L"/><use transform="matrix(0.06172839506172839,0,0,0.06172839506172839,83.76543209876543,0)" xlink:href="#O"/><use transform="matrix(0.06172839506172839,0,0,0.06172839506172839,88.64197530864197,0)" xlink:href="#R"/><use transform="matrix(0.06172839506172839,0,0,0.06172839506172839,100.98765432098766,0)" xlink:href="#G"/></g><path fill="#29384d" d="M30-248c118-7 216 8 213 122C240-48 200 0 122 0H30v-248zM63-27c89 8 146-16 146-99s-60-101-146-95v194" id="X"/><g id="n"><use transform="matrix(0.06172839506172839,0,0,0.06172839506172839,0,0)" xlink:href="#X"/><use transform="matrix(0.06172839506172839,0,0,0.06172839506172839,15.987654320987653,0)" xlink:href="#F"/><use transform="matrix(0.06172839506172839,0,0,0.06172839506172839,28.333333333333332,0)" xlink:href="#L"/><use transform="matrix(0.06172839506172839,0,0,0.06172839506172839,39.44444444444444,0)" xlink:href="#W"/><use transform="matrix(0.06172839506172839,0,0,0.06172839506172839,57.90123456790123,0)" xlink:href="#K"/><use transform="matrix(0.06172839506172839,0,0,0.06172839506172839,70.24691358024691,0)" xlink:href="#I"/><use transform="matrix(0.06172839506172839,0,0,0.06172839506172839,82.5925925925926,0)" xlink:href="#E"/><use transform="matrix(0.06172839506172839,0,0,0.06172839506172839,94.93827160493828,0)" xlink:href="#J"/><use transform="matrix(0.06172839506172839,0,0,0.06172839506172839,99.81481481481482,0)" xlink:href="#M"/><use transform="matrix(0.06172839506172839,0,0,0.06172839506172839,112.16049382716051,0)" xlink:href="#I"/><use transform="matrix(0.06172839506172839,0,0,0.06172839506172839,124.50617283950619,0)" xlink:href="#K"/><use transform="matrix(0.06172839506172839,0,0,0.06172839506172839,136.85185185185188,0)" xlink:href="#T"/></g><g id="o"><use transform="matrix(0.06172839506172839,0,0,0.06172839506172839,0,0)" xlink:href="#X"/><use transform="matrix(0.06172839506172839,0,0,0.06172839506172839,15.987654320987653,0)" xlink:href="#F"/><use transform="matrix(0.06172839506172839,0,0,0.06172839506172839,28.333333333333332,0)" xlink:href="#L"/><use transform="matrix(0.06172839506172839,0,0,0.06172839506172839,39.44444444444444,0)" xlink:href="#Q"/><use transform="matrix(0.06172839506172839,0,0,0.06172839506172839,50.55555555555556,0)" xlink:href="#K"/><use transform="matrix(0.06172839506172839,0,0,0.06172839506172839,62.901234567901234,0)" xlink:href="#I"/><use transform="matrix(0.06172839506172839,0,0,0.06172839506172839,75.24691358024691,0)" xlink:href="#O"/><use transform="matrix(0.06172839506172839,0,0,0.06172839506172839,80.12345679012346,0)" xlink:href="#P"/><use transform="matrix(0.06172839506172839,0,0,0.06172839506172839,86.29629629629629,0)" xlink:href="#O"/><use transform="matrix(0.06172839506172839,0,0,0.06172839506172839,91.17283950617283,0)" xlink:href="#Q"/><use transform="matrix(0.06172839506172839,0,0,0.06172839506172839,102.28395061728395,0)" xlink:href="#M"/><use transform="matrix(0.06172839506172839,0,0,0.06172839506172839,114.62962962962963,0)" xlink:href="#Q"/><use transform="matrix(0.06172839506172839,0,0,0.06172839506172839,125.74074074074075,0)" xlink:href="#O"/><use transform="matrix(0.06172839506172839,0,0,0.06172839506172839,130.6172839506173,0)" xlink:href="#R"/><use transform="matrix(0.06172839506172839,0,0,0.06172839506172839,142.96296296296296,0)" xlink:href="#G"/></g><g id="p"><use transform="matrix(0.06172839506172839,0,0,0.06172839506172839,0,0)" xlink:href="#Q"/><use transform="matrix(0.06172839506172839,0,0,0.06172839506172839,11.11111111111111,0)" xlink:href="#M"/><use transform="matrix(0.06172839506172839,0,0,0.06172839506172839,23.45679012345679,0)" xlink:href="#G"/><use transform="matrix(0.06172839506172839,0,0,0.06172839506172839,35.80246913580247,0)" xlink:href="#M"/><use transform="matrix(0.06172839506172839,0,0,0.06172839506172839,48.148148148148145,0)" xlink:href="#J"/></g><g id="q"><use transform="matrix(0.06172839506172839,0,0,0.06172839506172839,0,0)" xlink:href="#X"/><use transform="matrix(0.06172839506172839,0,0,0.06172839506172839,15.987654320987653,0)" xlink:href="#F"/><use transform="matrix(0.06172839506172839,0,0,0.06172839506172839,28.333333333333332,0)" xlink:href="#L"/><use transform="matrix(0.06172839506172839,0,0,0.06172839506172839,39.44444444444444,0)" xlink:href="#F"/><use transform="matrix(0.06172839506172839,0,0,0.06172839506172839,51.79012345679012,0)" xlink:href="#G"/><use transform="matrix(0.06172839506172839,0,0,0.06172839506172839,64.1358024691358,0)" xlink:href="#Q"/><use transform="matrix(0.06172839506172839,0,0,0.06172839506172839,75.24691358024691,0)" xlink:href="#T"/><use transform="matrix(0.06172839506172839,0,0,0.06172839506172839,82.5925925925926,0)" xlink:href="#O"/><use transform="matrix(0.06172839506172839,0,0,0.06172839506172839,87.46913580246914,0)" xlink:href="#U"/><use transform="matrix(0.06172839506172839,0,0,0.06172839506172839,99.81481481481482,0)" xlink:href="#H"/><use transform="matrix(0.06172839506172839,0,0,0.06172839506172839,105.98765432098766,0)" xlink:href="#M"/><use transform="matrix(0.06172839506172839,0,0,0.06172839506172839,118.33333333333334,0)" xlink:href="#Q"/><use transform="matrix(0.06172839506172839,0,0,0.06172839506172839,129.44444444444446,0)" xlink:href="#O"/><use transform="matrix(0.06172839506172839,0,0,0.06172839506172839,134.320987654321,0)" xlink:href="#R"/><use transform="matrix(0.06172839506172839,0,0,0.06172839506172839,146.66666666666666,0)" xlink:href="#G"/></g><g id="r"><use transform="matrix(0.06172839506172839,0,0,0.06172839506172839,0,0)" xlink:href="#X"/><use transform="matrix(0.06172839506172839,0,0,0.06172839506172839,15.987654320987653,0)" xlink:href="#F"/><use transform="matrix(0.06172839506172839,0,0,0.06172839506172839,28.333333333333332,0)" xlink:href="#L"/><use transform="matrix(0.06172839506172839,0,0,0.06172839506172839,39.44444444444444,0)" xlink:href="#Q"/><use transform="matrix(0.06172839506172839,0,0,0.06172839506172839,50.55555555555556,0)" xlink:href="#K"/><use transform="matrix(0.06172839506172839,0,0,0.06172839506172839,62.901234567901234,0)" xlink:href="#I"/><use transform="matrix(0.06172839506172839,0,0,0.06172839506172839,75.24691358024691,0)" xlink:href="#O"/><use transform="matrix(0.06172839506172839,0,0,0.06172839506172839,80.12345679012346,0)" xlink:href="#P"/><use transform="matrix(0.06172839506172839,0,0,0.06172839506172839,86.29629629629629,0)" xlink:href="#O"/><use transform="matrix(0.06172839506172839,0,0,0.06172839506172839,91.17283950617283,0)" xlink:href="#Q"/><use transform="matrix(0.06172839506172839,0,0,0.06172839506172839,102.28395061728395,0)" xlink:href="#M"/><use transform="matrix(0.06172839506172839,0,0,0.06172839506172839,114.62962962962963,0)" xlink:href="#Q"/><use transform="matrix(0.06172839506172839,0,0,0.06172839506172839,125.74074074074075,0)" xlink:href="#O"/><use transform="matrix(0.06172839506172839,0,0,0.06172839506172839,130.6172839506173,0)" xlink:href="#R"/><use transform="matrix(0.06172839506172839,0,0,0.06172839506172839,142.96296296296296,0)" xlink:href="#G"/></g><g id="s"><use transform="matrix(0.06172839506172839,0,0,0.06172839506172839,0,0)" xlink:href="#X"/><use transform="matrix(0.06172839506172839,0,0,0.06172839506172839,15.987654320987653,0)" xlink:href="#F"/><use transform="matrix(0.06172839506172839,0,0,0.06172839506172839,28.333333333333332,0)" xlink:href="#L"/><use transform="matrix(0.06172839506172839,0,0,0.06172839506172839,39.44444444444444,0)" xlink:href="#H"/><use transform="matrix(0.06172839506172839,0,0,0.06172839506172839,45.617283950617285,0)" xlink:href="#O"/><use transform="matrix(0.06172839506172839,0,0,0.06172839506172839,50.49382716049383,0)" xlink:href="#G"/><use transform="matrix(0.06172839506172839,0,0,0.06172839506172839,62.839506172839506,0)" xlink:href="#K"/></g><path fill="#29384d" d="M141 0L90-78 38 0H4l68-98-65-92h35l48 74 47-74h35l-64 92 68 98h-35" id="Y"/><g id="t"><use transform="matrix(0.06172839506172839,0,0,0.06172839506172839,0,0)" xlink:href="#W"/><use transform="matrix(0.06172839506172839,0,0,0.06172839506172839,18.456790123456788,0)" xlink:href="#E"/><use transform="matrix(0.06172839506172839,0,0,0.06172839506172839,30.80246913580247,0)" xlink:href="#J"/><use transform="matrix(0.06172839506172839,0,0,0.06172839506172839,35.67901234567901,0)" xlink:href="#H"/><use transform="matrix(0.06172839506172839,0,0,0.06172839506172839,41.851851851851855,0)" xlink:href="#O"/><use transform="matrix(0.06172839506172839,0,0,0.06172839506172839,46.7283950617284,0)" xlink:href="#U"/><use transform="matrix(0.06172839506172839,0,0,0.06172839506172839,59.074074074074076,0)" xlink:href="#J"/><use transform="matrix(0.06172839506172839,0,0,0.06172839506172839,63.95061728395061,0)" xlink:href="#F"/><use transform="matrix(0.06172839506172839,0,0,0.06172839506172839,76.2962962962963,0)" xlink:href="#Y"/><use transform="matrix(0.06172839506172839,0,0,0.06172839506172839,87.40740740740742,0)" xlink:href="#K"/><use transform="matrix(0.06172839506172839,0,0,0.06172839506172839,99.7530864197531,0)" xlink:href="#T"/></g><g id="u"><use transform="matrix(0.06172839506172839,0,0,0.06172839506172839,0,0)" xlink:href="#I"/><use transform="matrix(0.06172839506172839,0,0,0.06172839506172839,12.345679012345679,0)" xlink:href="#F"/><use transform="matrix(0.06172839506172839,0,0,0.06172839506172839,24.691358024691358,0)" xlink:href="#L"/><use transform="matrix(0.06172839506172839,0,0,0.06172839506172839,35.80246913580247,0)" xlink:href="#W"/><use transform="matrix(0.06172839506172839,0,0,0.06172839506172839,54.25925925925925,0)" xlink:href="#E"/><use transform="matrix(0.06172839506172839,0,0,0.06172839506172839,66.60493827160494,0)" xlink:href="#J"/><use transform="matrix(0.06172839506172839,0,0,0.06172839506172839,71.48148148148148,0)" xlink:href="#H"/><use transform="matrix(0.06172839506172839,0,0,0.06172839506172839,77.65432098765432,0)" xlink:href="#O"/><use transform="matrix(0.06172839506172839,0,0,0.06172839506172839,82.53086419753086,0)" xlink:href="#U"/><use transform="matrix(0.06172839506172839,0,0,0.06172839506172839,94.87654320987654,0)" xlink:href="#J"/><use transform="matrix(0.06172839506172839,0,0,0.06172839506172839,99.75308641975309,0)" xlink:href="#F"/><use transform="matrix(0.06172839506172839,0,0,0.06172839506172839,112.09876543209877,0)" xlink:href="#Y"/><use transform="matrix(0.06172839506172839,0,0,0.06172839506172839,123.20987654320989,0)" xlink:href="#K"/><use transform="matrix(0.06172839506172839,0,0,0.06172839506172839,135.55555555555557,0)" xlink:href="#T"/></g><g id="v"><use transform="matrix(0.09320987654320984,0,0,0.09320987654320984,0,0)" xlink:href="#N"/><use transform="matrix(0.09320987654320984,0,0,0.09320987654320984,24.141358024691346,0)" xlink:href="#M"/><use transform="matrix(0.09320987654320984,0,0,0.09320987654320984,42.78333333333332,0)" xlink:href="#U"/><use transform="matrix(0.09320987654320984,0,0,0.09320987654320984,61.425308641975285,0)" xlink:href="#M"/></g><path fill="#29384d" d="M34 0v-190h32V0H34zM24-211c8-23 27-35 38-54h36v5l-58 49H24" id="Z"/><g id="w"><use transform="matrix(0.09320987654320984,0,0,0.09320987654320984,0,0)" xlink:href="#P"/><use transform="matrix(0.09320987654320984,0,0,0.09320987654320984,9.320987654320984,0)" xlink:href="#Z"/><use transform="matrix(0.09320987654320984,0,0,0.09320987654320984,18.641975308641968,0)" xlink:href="#L"/><use transform="matrix(0.09320987654320984,0,0,0.09320987654320984,35.41975308641974,0)" xlink:href="#O"/><use transform="matrix(0.09320987654320984,0,0,0.09320987654320984,42.78333333333332,0)" xlink:href="#Q"/><use transform="matrix(0.09320987654320984,0,0,0.09320987654320984,59.56111111111108,0)" xlink:href="#M"/></g><g id="x"><use transform="matrix(0.09320987654320984,0,0,0.09320987654320984,0,0)" xlink:href="#I"/><use transform="matrix(0.09320987654320984,0,0,0.09320987654320984,18.641975308641968,0)" xlink:href="#F"/></g><g id="y"><use transform="matrix(0.09320987654320984,0,0,0.09320987654320984,0,0)" xlink:href="#F"/><use transform="matrix(0.09320987654320984,0,0,0.09320987654320984,18.641975308641968,0)" xlink:href="#G"/><use transform="matrix(0.09320987654320984,0,0,0.09320987654320984,37.283950617283935,0)" xlink:href="#J"/><use transform="matrix(0.09320987654320984,0,0,0.09320987654320984,44.64753086419751,0)" xlink:href="#M"/><use transform="matrix(0.09320987654320984,0,0,0.09320987654320984,63.28950617283948,0)" xlink:href="#Q"/><use transform="matrix(0.09320987654320984,0,0,0.09320987654320984,80.06728395061725,0)" xlink:href="#F"/></g><g id="z"><use transform="matrix(0.09320987654320984,0,0,0.09320987654320984,0,0)" xlink:href="#I"/><use transform="matrix(0.09320987654320984,0,0,0.09320987654320984,18.641975308641968,0)" xlink:href="#M"/><use transform="matrix(0.09320987654320984,0,0,0.09320987654320984,37.283950617283935,0)" xlink:href="#H"/><use transform="matrix(0.09320987654320984,0,0,0.09320987654320984,46.60493827160492,0)" xlink:href="#K"/><use transform="matrix(0.09320987654320984,0,0,0.09320987654320984,65.24691358024688,0)" xlink:href="#L"/></g><g id="A"><use transform="matrix(0.06172839506172839,0,0,0.06172839506172839,0,0)" xlink:href="#N"/><use transform="matrix(0.06172839506172839,0,0,0.06172839506172839,15.987654320987653,0)" xlink:href="#K"/><use transform="matrix(0.06172839506172839,0,0,0.06172839506172839,28.333333333333332,0)" xlink:href="#I"/><use transform="matrix(0.06172839506172839,0,0,0.06172839506172839,40.67901234567901,0)" xlink:href="#O"/><use transform="matrix(0.06172839506172839,0,0,0.06172839506172839,45.55555555555556,0)" xlink:href="#P"/><use transform="matrix(0.06172839506172839,0,0,0.06172839506172839,51.7283950617284,0)" xlink:href="#O"/><use transform="matrix(0.06172839506172839,0,0,0.06172839506172839,56.604938271604944,0)" xlink:href="#Q"/><use transform="matrix(0.06172839506172839,0,0,0.06172839506172839,67.71604938271605,0)" xlink:href="#M"/><use transform="matrix(0.06172839506172839,0,0,0.06172839506172839,80.06172839506173,0)" xlink:href="#I"/><use transform="matrix(0.06172839506172839,0,0,0.06172839506172839,92.40740740740742,0)" xlink:href="#K"/><use transform="matrix(0.06172839506172839,0,0,0.06172839506172839,104.7530864197531,0)" xlink:href="#T"/></g><g id="B"><use transform="matrix(0.06172839506172839,0,0,0.06172839506172839,0,0)" xlink:href="#J"/><use transform="matrix(0.06172839506172839,0,0,0.06172839506172839,4.876543209876543,0)" xlink:href="#Z"/><use transform="matrix(0.06172839506172839,0,0,0.06172839506172839,11.049382716049383,0)" xlink:href="#G"/><use transform="matrix(0.06172839506172839,0,0,0.06172839506172839,23.395061728395063,0)" xlink:href="#F"/><use transform="matrix(0.06172839506172839,0,0,0.06172839506172839,35.74074074074074,0)" xlink:href="#M"/></g><g id="C"><use transform="matrix(0.06172839506172839,0,0,0.06172839506172839,0,0)" xlink:href="#X"/><use transform="matrix(0.06172839506172839,0,0,0.06172839506172839,15.987654320987653,0)" xlink:href="#F"/><use transform="matrix(0.06172839506172839,0,0,0.06172839506172839,28.333333333333332,0)" xlink:href="#L"/><use transform="matrix(0.06172839506172839,0,0,0.06172839506172839,39.44444444444444,0)" xlink:href="#Q"/><use transform="matrix(0.06172839506172839,0,0,0.06172839506172839,50.55555555555556,0)" xlink:href="#K"/><use transform="matrix(0.06172839506172839,0,0,0.06172839506172839,62.901234567901234,0)" xlink:href="#I"/><use transform="matrix(0.06172839506172839,0,0,0.06172839506172839,75.24691358024691,0)" xlink:href="#O"/><use transform="matrix(0.06172839506172839,0,0,0.06172839506172839,80.12345679012346,0)" xlink:href="#P"/><use transform="matrix(0.06172839506172839,0,0,0.06172839506172839,86.29629629629629,0)" xlink:href="#O"/><use transform="matrix(0.06172839506172839,0,0,0.06172839506172839,91.17283950617283,0)" xlink:href="#Q"/><use transform="matrix(0.06172839506172839,0,0,0.06172839506172839,102.28395061728395,0)" xlink:href="#M"/><use transform="matrix(0.06172839506172839,0,0,0.06172839506172839,114.62962962962963,0)" xlink:href="#I"/><use transform="matrix(0.06172839506172839,0,0,0.06172839506172839,126.97530864197533,0)" xlink:href="#K"/><use transform="matrix(0.06172839506172839,0,0,0.06172839506172839,139.320987654321,0)" xlink:href="#T"/></g></defs></g></svg>